solid OpenSCAD_Model
  facet normal -1 0 0
    outer loop
      vertex 0 -12 0
      vertex 0 93 9.9
      vertex 0 93 0
    endloop
  endfacet
  facet normal -1 -0 0
    outer loop
      vertex 0 93 9.9
      vertex 0 -12 0
      vertex 0 -12 9.9
    endloop
  endfacet
  facet normal -0 0 1
    outer loop
      vertex 0 93 9.9
      vertex 6 78.5 9.9
      vertex 6 93 9.9
    endloop
  endfacet
  facet normal 0 0 1
    outer loop
      vertex 6 78.5 9.9
      vertex 0 93 9.9
      vertex 6 75.5 9.9
    endloop
  endfacet
  facet normal 0 -0 1
    outer loop
      vertex 3 0 9.9
      vertex 6 75.5 9.9
      vertex 0 93 9.9
    endloop
  endfacet
  facet normal 0 0 1
    outer loop
      vertex 6 3 9.9
      vertex 3 0 9.9
      vertex 6 0 9.9
    endloop
  endfacet
  facet normal 0 0 1
    outer loop
      vertex 6 75.5 9.9
      vertex 3 0 9.9
      vertex 6 3 9.9
    endloop
  endfacet
  facet normal 0 0 1
    outer loop
      vertex 0 -12 9.9
      vertex 3 0 9.9
      vertex 0 93 9.9
    endloop
  endfacet
  facet normal 0 0 1
    outer loop
      vertex 3 0 9.9
      vertex 0 -12 9.9
      vertex 3 -12 9.9
    endloop
  endfacet
  facet normal -0 0 1
    outer loop
      vertex 7.6 88.8787 9.9
      vertex 9.6 76.6213 9.9
      vertex 9.6 90.8787 9.9
    endloop
  endfacet
  facet normal 0 0 1
    outer loop
      vertex 9.6 76.6213 9.9
      vertex 7.6 88.8787 9.9
      vertex 7.6 78.5 9.9
    endloop
  endfacet
  facet normal 0 0 1
    outer loop
      vertex 9.6 76.6213 9.9
      vertex 7.6 78.5 9.9
      vertex 8.47868 75.5 9.9
    endloop
  endfacet
  facet normal 0 0 1
    outer loop
      vertex 6 75.5 9.9
      vertex 7.6 78.5 9.9
      vertex 6 78.5 9.9
    endloop
  endfacet
  facet normal 0 0 1
    outer loop
      vertex 7.6 78.5 9.9
      vertex 6 75.5 9.9
      vertex 8.47868 75.5 9.9
    endloop
  endfacet
  facet normal -0 0 1
    outer loop
      vertex 7.6 13.3787 9.9
      vertex 9.6 1.12132 9.9
      vertex 9.6 15.3787 9.9
    endloop
  endfacet
  facet normal 0 0 1
    outer loop
      vertex 9.6 1.12132 9.9
      vertex 7.6 13.3787 9.9
      vertex 7.6 3 9.9
    endloop
  endfacet
  facet normal 0 0 1
    outer loop
      vertex 9.6 1.12132 9.9
      vertex 7.6 3 9.9
      vertex 8.47868 0 9.9
    endloop
  endfacet
  facet normal 0 0 1
    outer loop
      vertex 6 0 9.9
      vertex 7.6 3 9.9
      vertex 6 3 9.9
    endloop
  endfacet
  facet normal 0 0 1
    outer loop
      vertex 7.6 3 9.9
      vertex 6 0 9.9
      vertex 8.47868 0 9.9
    endloop
  endfacet
  facet normal 1 -0 0
    outer loop
      vertex 6 3 9.9
      vertex 6 75.5 0
      vertex 6 75.5 9.9
    endloop
  endfacet
  facet normal 1 0 0
    outer loop
      vertex 6 75.5 0
      vertex 6 3 9.9
      vertex 6 3 0
    endloop
  endfacet
  facet normal 1 -0 0
    outer loop
      vertex 6 78.5 9.9
      vertex 6 93 0
      vertex 6 93 9.9
    endloop
  endfacet
  facet normal 1 0 0
    outer loop
      vertex 6 93 0
      vertex 6 78.5 9.9
      vertex 6 78.5 0
    endloop
  endfacet
  facet normal 0 1 -0
    outer loop
      vertex 6 93 0
      vertex 0 93 9.9
      vertex 6 93 9.9
    endloop
  endfacet
  facet normal 0 1 0
    outer loop
      vertex 0 93 9.9
      vertex 6 93 0
      vertex 0 93 0
    endloop
  endfacet
  facet normal 0 0 -1
    outer loop
      vertex 3 -12 0
      vertex 0 -12 0
      vertex 3 0 0
    endloop
  endfacet
  facet normal 0 0 -1
    outer loop
      vertex 6 0 0
      vertex 7.6 3 0
      vertex 7.6 0 0
    endloop
  endfacet
  facet normal 0 0 -1
    outer loop
      vertex 6 0 0
      vertex 6 3 0
      vertex 7.6 3 0
    endloop
  endfacet
  facet normal 0 0 -1
    outer loop
      vertex 3 0 0
      vertex 6 3 0
      vertex 6 0 0
    endloop
  endfacet
  facet normal -0 0 -1
    outer loop
      vertex 6 3 0
      vertex 3 0 0
      vertex 6 75.5 0
    endloop
  endfacet
  facet normal 0 0 -1
    outer loop
      vertex 0 93 0
      vertex 6 75.5 0
      vertex 3 0 0
    endloop
  endfacet
  facet normal 0 0 -1
    outer loop
      vertex 6 75.5 0
      vertex 0 93 0
      vertex 6 78.5 0
    endloop
  endfacet
  facet normal 0 0 -1
    outer loop
      vertex 0 93 0
      vertex 3 0 0
      vertex 0 -12 0
    endloop
  endfacet
  facet normal 0 0 -1
    outer loop
      vertex 6 78.5 0
      vertex 0 93 0
      vertex 6 93 0
    endloop
  endfacet
  facet normal 0 0 -1
    outer loop
      vertex 6 75.5 0
      vertex 7.6 78.5 0
      vertex 7.6 75.5 0
    endloop
  endfacet
  facet normal -0 0 -1
    outer loop
      vertex 7.6 78.5 0
      vertex 6 75.5 0
      vertex 6 78.5 0
    endloop
  endfacet
  facet normal 0 -1 0
    outer loop
      vertex 0 -12 0
      vertex 3 -12 9.9
      vertex 0 -12 9.9
    endloop
  endfacet
  facet normal 0 -1 -0
    outer loop
      vertex 3 -12 9.9
      vertex 0 -12 0
      vertex 3 -12 0
    endloop
  endfacet
  facet normal 1 -0 0
    outer loop
      vertex 3 -12 9.9
      vertex 3 0 0
      vertex 3 0 9.9
    endloop
  endfacet
  facet normal 1 0 0
    outer loop
      vertex 3 0 0
      vertex 3 -12 9.9
      vertex 3 -12 0
    endloop
  endfacet
  facet normal 0 -1 0
    outer loop
      vertex 3 0 0
      vertex 6 0 9.9
      vertex 3 0 9.9
    endloop
  endfacet
  facet normal 0 -1 -0
    outer loop
      vertex 6 0 9.9
      vertex 3 0 0
      vertex 6 0 0
    endloop
  endfacet
  facet normal -0.707107 0.707107 1.68588e-07
    outer loop
      vertex 7.6 13.3787 5.72205e-06
      vertex 9.72132 15.5 0.121326
      vertex 9.6 15.3787 5.72205e-06
    endloop
  endfacet
  facet normal -0.707107 0.707107 0
    outer loop
      vertex 9.72132 15.5 0.121326
      vertex 7.6 13.3787 5.72205e-06
      vertex 9.72132 15.5 9.77868
    endloop
  endfacet
  facet normal -0.707107 0.707107 0
    outer loop
      vertex 7.6 13.3787 9.9
      vertex 9.72132 15.5 9.77868
      vertex 7.6 13.3787 5.72205e-06
    endloop
  endfacet
  facet normal -0.707107 0.707107 -1.68587e-07
    outer loop
      vertex 9.72132 15.5 9.77868
      vertex 7.6 13.3787 9.9
      vertex 9.6 15.3787 9.9
    endloop
  endfacet
  facet normal 0.707107 -0.707107 1.77707e-07
    outer loop
      vertex 8.47868 0 9.9
      vertex 10.6 2.12132 8.9
      vertex 9.6 1.12132 9.9
    endloop
  endfacet
  facet normal 0.707107 -0.707107 0
    outer loop
      vertex 8.47868 0 9.9
      vertex 10.6 2.12132 1.00001
      vertex 10.6 2.12132 8.9
    endloop
  endfacet
  facet normal 0.707107 -0.707107 0
    outer loop
      vertex 8.47868 0 5.72205e-06
      vertex 10.6 2.12132 1.00001
      vertex 8.47868 0 9.9
    endloop
  endfacet
  facet normal 0.707107 -0.707107 -1.77707e-07
    outer loop
      vertex 10.6 2.12132 1.00001
      vertex 8.47868 0 5.72205e-06
      vertex 9.6 1.12132 5.72205e-06
    endloop
  endfacet
  facet normal 0.707107 0 -0.707107
    outer loop
      vertex 9.6 15.3787 5.72205e-06
      vertex 10.6 15.5 1.00001
      vertex 10.6 2.12132 1.00001
    endloop
  endfacet
  facet normal 0.707107 0 -0.707107
    outer loop
      vertex 9.6 15.3787 5.72205e-06
      vertex 10.6 2.12132 1.00001
      vertex 9.6 1.12132 5.72205e-06
    endloop
  endfacet
  facet normal 0.707107 -2.52046e-06 -0.707107
    outer loop
      vertex 10.6 15.5 1.00001
      vertex 9.6 15.3787 5.72205e-06
      vertex 9.72132 15.5 0.121326
    endloop
  endfacet
  facet normal 1 -0 0
    outer loop
      vertex 7.6 0 5.72205e-06
      vertex 7.6 3 0
      vertex 7.6 3 5.72205e-06
    endloop
  endfacet
  facet normal 1 0 0
    outer loop
      vertex 7.6 3 0
      vertex 7.6 0 5.72205e-06
      vertex 7.6 0 0
    endloop
  endfacet
  facet normal -1 0 0
    outer loop
      vertex 7.6 3 5.72205e-06
      vertex 7.6 13.3787 9.9
      vertex 7.6 13.3787 5.72205e-06
    endloop
  endfacet
  facet normal -1 -0 0
    outer loop
      vertex 7.6 13.3787 9.9
      vertex 7.6 3 5.72205e-06
      vertex 7.6 3 9.9
    endloop
  endfacet
  facet normal 0 1 -0
    outer loop
      vertex 10.6 15.5 1.00001
      vertex 9.72132 15.5 9.77868
      vertex 10.6 15.5 8.9
    endloop
  endfacet
  facet normal 0 1 0
    outer loop
      vertex 9.72132 15.5 9.77868
      vertex 10.6 15.5 1.00001
      vertex 9.72132 15.5 0.121326
    endloop
  endfacet
  facet normal 0 0 -1
    outer loop
      vertex 7.6 3 5.72205e-06
      vertex 9.6 1.12132 5.72205e-06
      vertex 8.47868 0 5.72205e-06
    endloop
  endfacet
  facet normal 0 -0 -1
    outer loop
      vertex 7.6 13.3787 5.72205e-06
      vertex 9.6 1.12132 5.72205e-06
      vertex 7.6 3 5.72205e-06
    endloop
  endfacet
  facet normal 0 0 -1
    outer loop
      vertex 7.6 3 5.72205e-06
      vertex 8.47868 0 5.72205e-06
      vertex 7.6 0 5.72205e-06
    endloop
  endfacet
  facet normal 0 0 -1
    outer loop
      vertex 9.6 1.12132 5.72205e-06
      vertex 7.6 13.3787 5.72205e-06
      vertex 9.6 15.3787 5.72205e-06
    endloop
  endfacet
  facet normal 0 -1 0
    outer loop
      vertex 6 0 9.9
      vertex 7.6 0 5.72205e-06
      vertex 8.47868 0 9.9
    endloop
  endfacet
  facet normal 0 -1 0
    outer loop
      vertex 6 0 0
      vertex 7.6 0 5.72205e-06
      vertex 6 0 9.9
    endloop
  endfacet
  facet normal 0 -1 -0
    outer loop
      vertex 7.6 0 5.72205e-06
      vertex 6 0 0
      vertex 7.6 0 0
    endloop
  endfacet
  facet normal 0 -1 -0
    outer loop
      vertex 8.47868 0 9.9
      vertex 7.6 0 5.72205e-06
      vertex 8.47868 0 5.72205e-06
    endloop
  endfacet
  facet normal 1 -0 0
    outer loop
      vertex 10.6 2.12132 8.9
      vertex 10.6 15.5 1.00001
      vertex 10.6 15.5 8.9
    endloop
  endfacet
  facet normal 1 0 0
    outer loop
      vertex 10.6 15.5 1.00001
      vertex 10.6 2.12132 8.9
      vertex 10.6 2.12132 1.00001
    endloop
  endfacet
  facet normal 0.707107 0 0.707107
    outer loop
      vertex 9.6 15.3787 9.9
      vertex 10.6 15.5 8.9
      vertex 9.72132 15.5 9.77868
    endloop
  endfacet
  facet normal 0.707107 0 0.707107
    outer loop
      vertex 9.6 15.3787 9.9
      vertex 10.6 2.12132 8.9
      vertex 10.6 15.5 8.9
    endloop
  endfacet
  facet normal 0.707107 0 0.707107
    outer loop
      vertex 10.6 2.12132 8.9
      vertex 9.6 15.3787 9.9
      vertex 9.6 1.12132 9.9
    endloop
  endfacet
  facet normal 0 1 -0
    outer loop
      vertex 7.6 3 5.72205e-06
      vertex 6 3 9.9
      vertex 7.6 3 9.9
    endloop
  endfacet
  facet normal 0 1 0
    outer loop
      vertex 6 3 0
      vertex 7.6 3 5.72205e-06
      vertex 7.6 3 0
    endloop
  endfacet
  facet normal 0 1 0
    outer loop
      vertex 7.6 3 5.72205e-06
      vertex 6 3 0
      vertex 6 3 9.9
    endloop
  endfacet
  facet normal -0.707107 0.707107 -1.09483e-05
    outer loop
      vertex 7.6 88.8787 5.72205e-06
      vertex 9.72132 91 0.121326
      vertex 9.6 90.8787 5.72205e-06
    endloop
  endfacet
  facet normal -0.707107 0.707106 0
    outer loop
      vertex 9.72132 91 0.121326
      vertex 7.6 88.8787 5.72205e-06
      vertex 9.72132 91 9.77868
    endloop
  endfacet
  facet normal -0.707107 0.707106 0
    outer loop
      vertex 7.6 88.8787 9.9
      vertex 9.72132 91 9.77868
      vertex 7.6 88.8787 5.72205e-06
    endloop
  endfacet
  facet normal -0.707107 0.707107 1.09482e-05
    outer loop
      vertex 9.72132 91 9.77868
      vertex 7.6 88.8787 9.9
      vertex 9.6 90.8787 9.9
    endloop
  endfacet
  facet normal 0.707108 -0.707106 1.80417e-06
    outer loop
      vertex 8.47868 75.5 9.9
      vertex 10.6 77.6213 8.9
      vertex 9.6 76.6213 9.9
    endloop
  endfacet
  facet normal 0.707107 -0.707106 0
    outer loop
      vertex 10.6 77.6213 8.9
      vertex 8.47868 75.5 9.9
      vertex 10.6 77.6213 1.00001
    endloop
  endfacet
  facet normal 0.707107 -0.707106 0
    outer loop
      vertex 8.47868 75.5 5.72205e-06
      vertex 10.6 77.6213 1.00001
      vertex 8.47868 75.5 9.9
    endloop
  endfacet
  facet normal 0.707108 -0.707106 -1.80417e-06
    outer loop
      vertex 10.6 77.6213 1.00001
      vertex 8.47868 75.5 5.72205e-06
      vertex 9.6 76.6213 5.72205e-06
    endloop
  endfacet
  facet normal 0.707107 -2.52042e-06 -0.707107
    outer loop
      vertex 10.6 91 1.00001
      vertex 9.6 90.8787 5.72205e-06
      vertex 9.72132 91 0.121326
    endloop
  endfacet
  facet normal 0.707107 0 -0.707107
    outer loop
      vertex 10.6 77.6213 1.00001
      vertex 9.6 90.8787 5.72205e-06
      vertex 10.6 91 1.00001
    endloop
  endfacet
  facet normal 0.707107 0 -0.707107
    outer loop
      vertex 9.6 90.8787 5.72205e-06
      vertex 10.6 77.6213 1.00001
      vertex 9.6 76.6213 5.72205e-06
    endloop
  endfacet
  facet normal 1 -0 0
    outer loop
      vertex 7.6 75.5 5.72205e-06
      vertex 7.6 78.5 0
      vertex 7.6 78.5 5.72205e-06
    endloop
  endfacet
  facet normal 1 0 0
    outer loop
      vertex 7.6 78.5 0
      vertex 7.6 75.5 5.72205e-06
      vertex 7.6 75.5 0
    endloop
  endfacet
  facet normal -1 0 0
    outer loop
      vertex 7.6 78.5 5.72205e-06
      vertex 7.6 88.8787 9.9
      vertex 7.6 88.8787 5.72205e-06
    endloop
  endfacet
  facet normal -1 -0 0
    outer loop
      vertex 7.6 88.8787 9.9
      vertex 7.6 78.5 5.72205e-06
      vertex 7.6 78.5 9.9
    endloop
  endfacet
  facet normal 0 1 -0
    outer loop
      vertex 10.6 91 1.00001
      vertex 9.72132 91 9.77868
      vertex 10.6 91 8.9
    endloop
  endfacet
  facet normal 0 1 0
    outer loop
      vertex 9.72132 91 9.77868
      vertex 10.6 91 1.00001
      vertex 9.72132 91 0.121326
    endloop
  endfacet
  facet normal 0 0 -1
    outer loop
      vertex 7.6 78.5 5.72205e-06
      vertex 9.6 76.6213 5.72205e-06
      vertex 8.47868 75.5 5.72205e-06
    endloop
  endfacet
  facet normal 0 -0 -1
    outer loop
      vertex 7.6 88.8787 5.72205e-06
      vertex 9.6 76.6213 5.72205e-06
      vertex 7.6 78.5 5.72205e-06
    endloop
  endfacet
  facet normal 0 0 -1
    outer loop
      vertex 7.6 78.5 5.72205e-06
      vertex 8.47868 75.5 5.72205e-06
      vertex 7.6 75.5 5.72205e-06
    endloop
  endfacet
  facet normal 0 0 -1
    outer loop
      vertex 9.6 76.6213 5.72205e-06
      vertex 7.6 88.8787 5.72205e-06
      vertex 9.6 90.8787 5.72205e-06
    endloop
  endfacet
  facet normal 0 -1 0
    outer loop
      vertex 6 75.5 9.9
      vertex 7.6 75.5 5.72205e-06
      vertex 8.47868 75.5 9.9
    endloop
  endfacet
  facet normal 0 -1 0
    outer loop
      vertex 6 75.5 0
      vertex 7.6 75.5 5.72205e-06
      vertex 6 75.5 9.9
    endloop
  endfacet
  facet normal 0 -1 -0
    outer loop
      vertex 7.6 75.5 5.72205e-06
      vertex 6 75.5 0
      vertex 7.6 75.5 0
    endloop
  endfacet
  facet normal 0 -1 -0
    outer loop
      vertex 8.47868 75.5 9.9
      vertex 7.6 75.5 5.72205e-06
      vertex 8.47868 75.5 5.72205e-06
    endloop
  endfacet
  facet normal 1 -0 0
    outer loop
      vertex 10.6 77.6213 8.9
      vertex 10.6 91 1.00001
      vertex 10.6 91 8.9
    endloop
  endfacet
  facet normal 1 0 0
    outer loop
      vertex 10.6 91 1.00001
      vertex 10.6 77.6213 8.9
      vertex 10.6 77.6213 1.00001
    endloop
  endfacet
  facet normal 0.707107 0 0.707107
    outer loop
      vertex 9.6 90.8787 9.9
      vertex 10.6 91 8.9
      vertex 9.72132 91 9.77868
    endloop
  endfacet
  facet normal 0.707107 0 0.707107
    outer loop
      vertex 9.6 90.8787 9.9
      vertex 10.6 77.6213 8.9
      vertex 10.6 91 8.9
    endloop
  endfacet
  facet normal 0.707107 0 0.707107
    outer loop
      vertex 10.6 77.6213 8.9
      vertex 9.6 90.8787 9.9
      vertex 9.6 76.6213 9.9
    endloop
  endfacet
  facet normal 0 1 -0
    outer loop
      vertex 7.6 78.5 5.72205e-06
      vertex 6 78.5 9.9
      vertex 7.6 78.5 9.9
    endloop
  endfacet
  facet normal 0 1 0
    outer loop
      vertex 6 78.5 0
      vertex 7.6 78.5 5.72205e-06
      vertex 7.6 78.5 0
    endloop
  endfacet
  facet normal 0 1 0
    outer loop
      vertex 7.6 78.5 5.72205e-06
      vertex 6 78.5 0
      vertex 6 78.5 9.9
    endloop
  endfacet
endsolid OpenSCAD_Model
